<mxfile host="Electron" agent="Mozilla/5.0 (Windows NT 10.0; Win64; x64) AppleWebKit/537.36 (KHTML, like Gecko) draw.io/24.7.5 Chrome/126.0.6478.183 Electron/31.3.0 Safari/537.36" version="24.7.5">
  <diagram id="v6J2Fcln8kv8FsL8eZeO" name="第 1 页">
    <mxGraphModel dx="2927" dy="2603" grid="1" gridSize="10" guides="1" tooltips="1" connect="1" arrows="1" fold="1" page="1" pageScale="1" pageWidth="827" pageHeight="1169" math="0" shadow="0">
      <root>
        <mxCell id="0" />
        <mxCell id="1" parent="0" />
        <mxCell id="wp81bA6mAi3hyo_PxzSs-12" value="" style="rounded=1;whiteSpace=wrap;html=1;strokeWidth=3;fillColor=none;strokeColor=#666666;arcSize=2;fontFamily=Times New Roman;fontStyle=1;fontSize=18;dashed=1;fontColor=#333333;" parent="1" vertex="1">
          <mxGeometry x="-750" y="-1050" width="1470" height="460" as="geometry" />
        </mxCell>
        <mxCell id="OeQdHstX1ipTwiemMq3e-1" value="" style="rounded=1;whiteSpace=wrap;html=1;strokeWidth=2;fillColor=#CCE7E5;strokeColor=#00897B;arcSize=12;fontFamily=Times New Roman;fontStyle=1;fontSize=18;" parent="1" vertex="1">
          <mxGeometry x="-400.93" y="-868" width="630.93" height="40" as="geometry" />
        </mxCell>
        <mxCell id="3SG8wKmaZ22dm2qWLbcS-46" value="&lt;span style=&quot;font-size: 20px&quot;&gt;strread&lt;/span&gt;" style="text;html=1;strokeColor=none;fillColor=none;align=center;verticalAlign=middle;whiteSpace=wrap;rounded=0;dashed=1;fontFamily=Times New Roman;fontStyle=1" parent="1" vertex="1">
          <mxGeometry x="-688.85" y="-1100" width="63.43" height="20" as="geometry" />
        </mxCell>
        <mxCell id="j4nsU8ipHiP7FBhPCXxy-13" value="&lt;span style=&quot;font-size: 20px&quot;&gt;decoderaw&lt;/span&gt;" style="text;html=1;strokeColor=none;fillColor=none;align=center;verticalAlign=middle;whiteSpace=wrap;rounded=0;dashed=1;fontFamily=Times New Roman;fontStyle=1" parent="1" vertex="1">
          <mxGeometry x="-702.13" y="-970" width="90" height="20" as="geometry" />
        </mxCell>
        <mxCell id="j4nsU8ipHiP7FBhPCXxy-14" value="" style="rounded=1;whiteSpace=wrap;html=1;strokeWidth=2;fillColor=#CCE7E5;strokeColor=#00897B;arcSize=12;fontFamily=Times New Roman;fontStyle=1;fontSize=18;" parent="1" vertex="1">
          <mxGeometry x="-401.26" y="-980" width="120.26" height="40" as="geometry" />
        </mxCell>
        <mxCell id="OeQdHstX1ipTwiemMq3e-23" style="edgeStyle=orthogonalEdgeStyle;rounded=0;orthogonalLoop=1;jettySize=auto;html=1;exitX=0.5;exitY=1;exitDx=0;exitDy=0;fontSize=14;fillColor=#dae8fc;strokeColor=#6c8ebf;strokeWidth=2;" parent="1" source="j4nsU8ipHiP7FBhPCXxy-15" target="OeQdHstX1ipTwiemMq3e-2" edge="1">
          <mxGeometry relative="1" as="geometry" />
        </mxCell>
        <mxCell id="j4nsU8ipHiP7FBhPCXxy-15" value="D3 00 ..." style="rounded=1;whiteSpace=wrap;html=1;strokeWidth=2;gradientDirection=east;fillColor=#f8cecc;strokeColor=#b85450;fontFamily=Times New Roman;fontStyle=1;fontSize=18;" parent="1" vertex="1">
          <mxGeometry x="-391.62000000000006" y="-975" width="101.36" height="30" as="geometry" />
        </mxCell>
        <mxCell id="j4nsU8ipHiP7FBhPCXxy-20" value="&lt;span style=&quot;color: rgb(0 , 0 , 0) ; font-size: 20px&quot;&gt;rtcm[0]-&amp;gt;buff[0]&lt;/span&gt;&lt;font color=&quot;#ffffff&quot;&gt;&lt;br&gt;&lt;/font&gt;" style="rounded=1;whiteSpace=wrap;html=1;strokeWidth=2;gradientDirection=east;fillColor=#dae8fc;strokeColor=#6c8ebf;fontFamily=Times New Roman;fontStyle=1;fontSize=18;" parent="1" vertex="1">
          <mxGeometry x="-568.85" y="-980" width="167.86" height="40" as="geometry" />
        </mxCell>
        <mxCell id="j4nsU8ipHiP7FBhPCXxy-23" value="" style="rounded=1;whiteSpace=wrap;html=1;strokeWidth=2;fillColor=#CCE7E5;strokeColor=#00897B;arcSize=12;fontFamily=Times New Roman;fontStyle=1;fontSize=18;" parent="1" vertex="1">
          <mxGeometry x="-401" y="-1110" width="1098.6" height="40" as="geometry" />
        </mxCell>
        <mxCell id="j4nsU8ipHiP7FBhPCXxy-205" style="edgeStyle=orthogonalEdgeStyle;rounded=0;orthogonalLoop=1;jettySize=auto;html=1;exitX=0.5;exitY=1;exitDx=0;exitDy=0;fontSize=18;fontColor=#CC0000;fillColor=#dae8fc;strokeColor=#6c8ebf;strokeWidth=2;" parent="1" source="j4nsU8ipHiP7FBhPCXxy-24" target="j4nsU8ipHiP7FBhPCXxy-15" edge="1">
          <mxGeometry relative="1" as="geometry" />
        </mxCell>
        <mxCell id="j4nsU8ipHiP7FBhPCXxy-24" value="D3 00 ..." style="rounded=1;whiteSpace=wrap;html=1;strokeWidth=2;gradientDirection=east;fillColor=#f8cecc;strokeColor=#b85450;fontFamily=Times New Roman;fontStyle=1;fontSize=18;" parent="1" vertex="1">
          <mxGeometry x="-391.36" y="-1105" width="101.36" height="30" as="geometry" />
        </mxCell>
        <mxCell id="j4nsU8ipHiP7FBhPCXxy-25" value="1087" style="rounded=1;whiteSpace=wrap;html=1;strokeWidth=2;gradientDirection=east;fillColor=#EEEEEE;strokeColor=none;fontFamily=Times New Roman;fontStyle=1;fontSize=18;" parent="1" vertex="1">
          <mxGeometry x="-231.67000000000002" y="-863" width="101.36" height="30" as="geometry" />
        </mxCell>
        <mxCell id="j4nsU8ipHiP7FBhPCXxy-26" value="D3 00 ..." style="rounded=1;whiteSpace=wrap;html=1;strokeWidth=2;gradientDirection=east;fillColor=#EEEEEE;strokeColor=none;fontFamily=Times New Roman;fontStyle=1;fontSize=18;" parent="1" vertex="1">
          <mxGeometry x="-171.24" y="-1105" width="101.36" height="30" as="geometry" />
        </mxCell>
        <mxCell id="j4nsU8ipHiP7FBhPCXxy-27" value="D3 00 ..." style="rounded=1;whiteSpace=wrap;html=1;strokeWidth=2;gradientDirection=east;fillColor=#EEEEEE;strokeColor=none;fontFamily=Times New Roman;fontStyle=1;fontSize=18;" parent="1" vertex="1">
          <mxGeometry x="-60.26999999999998" y="-1105" width="101.36" height="30" as="geometry" />
        </mxCell>
        <mxCell id="j4nsU8ipHiP7FBhPCXxy-31" value="&lt;span style=&quot;font-size: 20px&quot;&gt;decode_rtcm3&lt;/span&gt;" style="text;html=1;strokeColor=none;fillColor=none;align=center;verticalAlign=middle;whiteSpace=wrap;rounded=0;dashed=1;fontFamily=Times New Roman;fontStyle=1" parent="1" vertex="1">
          <mxGeometry x="-716.97" y="-758" width="119.67" height="20" as="geometry" />
        </mxCell>
        <mxCell id="j4nsU8ipHiP7FBhPCXxy-155" value="D3 00 ..." style="rounded=1;whiteSpace=wrap;html=1;strokeWidth=2;gradientDirection=east;fillColor=#fff2cc;strokeColor=#d6b656;fontFamily=Times New Roman;fontStyle=1;fontSize=18;" parent="1" vertex="1">
          <mxGeometry x="50.729999999999905" y="-1105" width="101.36" height="30" as="geometry" />
        </mxCell>
        <mxCell id="j4nsU8ipHiP7FBhPCXxy-156" value="D3 00 ..." style="rounded=1;whiteSpace=wrap;html=1;strokeWidth=2;gradientDirection=east;fillColor=#EEEEEE;strokeColor=none;fontFamily=Times New Roman;fontStyle=1;fontSize=18;" parent="1" vertex="1">
          <mxGeometry x="160.01999999999998" y="-1105" width="101.36" height="30" as="geometry" />
        </mxCell>
        <mxCell id="j4nsU8ipHiP7FBhPCXxy-157" value="D3 00 ..." style="rounded=1;whiteSpace=wrap;html=1;strokeWidth=2;gradientDirection=east;fillColor=#ffe6cc;strokeColor=#d79b00;fontFamily=Times New Roman;fontStyle=1;fontSize=18;" parent="1" vertex="1">
          <mxGeometry x="270.85" y="-1105" width="101.36" height="30" as="geometry" />
        </mxCell>
        <mxCell id="j4nsU8ipHiP7FBhPCXxy-158" value="D3 00 ..." style="rounded=1;whiteSpace=wrap;html=1;strokeWidth=2;gradientDirection=east;fillColor=#EEEEEE;strokeColor=none;fontFamily=Times New Roman;fontStyle=1;fontSize=18;" parent="1" vertex="1">
          <mxGeometry x="381.81999999999994" y="-1105" width="101.36" height="30" as="geometry" />
        </mxCell>
        <mxCell id="j4nsU8ipHiP7FBhPCXxy-159" value="D3 00 ..." style="rounded=1;whiteSpace=wrap;html=1;strokeWidth=2;gradientDirection=east;fillColor=#EEEEEE;strokeColor=none;fontFamily=Times New Roman;fontStyle=1;fontSize=18;" parent="1" vertex="1">
          <mxGeometry x="487.5999999999999" y="-1105" width="101.36" height="30" as="geometry" />
        </mxCell>
        <mxCell id="j4nsU8ipHiP7FBhPCXxy-160" value="&lt;span style=&quot;font-size: 20px&quot;&gt;......&lt;/span&gt;" style="text;html=1;strokeColor=none;fillColor=none;align=center;verticalAlign=middle;whiteSpace=wrap;rounded=0;dashed=1;fontFamily=Times New Roman;fontStyle=1" parent="1" vertex="1">
          <mxGeometry x="603.5999999999999" y="-1100" width="63.43" height="20" as="geometry" />
        </mxCell>
        <mxCell id="OeQdHstX1ipTwiemMq3e-2" value="1077" style="rounded=1;whiteSpace=wrap;html=1;strokeWidth=2;gradientDirection=east;fillColor=#f8cecc;strokeColor=#b85450;fontFamily=Times New Roman;fontStyle=1;fontSize=18;" parent="1" vertex="1">
          <mxGeometry x="-391.29000000000013" y="-863" width="101.36" height="30" as="geometry" />
        </mxCell>
        <mxCell id="OeQdHstX1ipTwiemMq3e-6" value="1097" style="rounded=1;whiteSpace=wrap;html=1;strokeWidth=2;gradientDirection=east;fillColor=#EEEEEE;strokeColor=none;fontFamily=Times New Roman;fontStyle=1;fontSize=18;" parent="1" vertex="1">
          <mxGeometry x="-71.87" y="-863" width="101.36" height="30" as="geometry" />
        </mxCell>
        <mxCell id="OeQdHstX1ipTwiemMq3e-8" value="1127" style="rounded=1;whiteSpace=wrap;html=1;strokeWidth=2;gradientDirection=east;fillColor=#EEEEEE;strokeColor=none;fontFamily=Times New Roman;fontStyle=1;fontSize=18;" parent="1" vertex="1">
          <mxGeometry x="88.33000000000004" y="-863" width="101.36" height="30" as="geometry" />
        </mxCell>
        <mxCell id="OeQdHstX1ipTwiemMq3e-9" value="" style="rounded=1;whiteSpace=wrap;html=1;strokeWidth=2;fillColor=#CCE7E5;strokeColor=#00897B;arcSize=12;fontFamily=Times New Roman;fontStyle=1;fontSize=18;" parent="1" vertex="1">
          <mxGeometry x="-400.5200000000001" y="-728" width="120.26" height="40" as="geometry" />
        </mxCell>
        <mxCell id="OeQdHstX1ipTwiemMq3e-10" value="1020" style="rounded=1;whiteSpace=wrap;html=1;strokeWidth=2;gradientDirection=east;fillColor=#EEEEEE;strokeColor=none;fontFamily=Times New Roman;fontStyle=1;fontSize=18;" parent="1" vertex="1">
          <mxGeometry x="-391.07000000000005" y="-723" width="101.36" height="30" as="geometry" />
        </mxCell>
        <mxCell id="OeQdHstX1ipTwiemMq3e-11" value="" style="rounded=1;whiteSpace=wrap;html=1;strokeWidth=2;fillColor=#CCE7E5;strokeColor=#00897B;arcSize=12;fontFamily=Times New Roman;fontStyle=1;fontSize=18;" parent="1" vertex="1">
          <mxGeometry x="-400.93" y="-798" width="120.26" height="40" as="geometry" />
        </mxCell>
        <mxCell id="OeQdHstX1ipTwiemMq3e-13" value="" style="rounded=1;whiteSpace=wrap;html=1;strokeWidth=2;fillColor=#CCE7E5;strokeColor=#00897B;arcSize=12;fontFamily=Times New Roman;fontStyle=1;fontSize=18;" parent="1" vertex="1">
          <mxGeometry x="-241.12000000000006" y="-798" width="120.26" height="40" as="geometry" />
        </mxCell>
        <mxCell id="OeQdHstX1ipTwiemMq3e-14" value="1042" style="rounded=1;whiteSpace=wrap;html=1;strokeWidth=2;gradientDirection=east;fillColor=#EEEEEE;strokeColor=none;fontFamily=Times New Roman;fontStyle=1;fontSize=18;" parent="1" vertex="1">
          <mxGeometry x="-231.67000000000002" y="-793" width="101.36" height="30" as="geometry" />
        </mxCell>
        <mxCell id="OeQdHstX1ipTwiemMq3e-15" value="" style="rounded=1;whiteSpace=wrap;html=1;strokeWidth=2;fillColor=#CCE7E5;strokeColor=#00897B;arcSize=12;fontFamily=Times New Roman;fontStyle=1;fontSize=18;" parent="1" vertex="1">
          <mxGeometry x="-80.92000000000007" y="-798" width="120.26" height="40" as="geometry" />
        </mxCell>
        <mxCell id="OeQdHstX1ipTwiemMq3e-16" value="1046" style="rounded=1;whiteSpace=wrap;html=1;strokeWidth=2;gradientDirection=east;fillColor=#EEEEEE;strokeColor=none;fontFamily=Times New Roman;fontStyle=1;fontSize=18;" parent="1" vertex="1">
          <mxGeometry x="-71.47000000000003" y="-793" width="101.36" height="30" as="geometry" />
        </mxCell>
        <mxCell id="OeQdHstX1ipTwiemMq3e-17" value="1019" style="rounded=1;whiteSpace=wrap;html=1;strokeWidth=2;gradientDirection=east;fillColor=#fff2cc;strokeColor=#d6b656;fontFamily=Times New Roman;fontStyle=1;fontSize=18;" parent="1" vertex="1">
          <mxGeometry x="-391.29" y="-793" width="101.36" height="30" as="geometry" />
        </mxCell>
        <mxCell id="OeQdHstX1ipTwiemMq3e-18" value="" style="rounded=1;whiteSpace=wrap;html=1;strokeWidth=2;fillColor=#CCE7E5;strokeColor=#00897B;arcSize=12;fontFamily=Times New Roman;fontStyle=1;fontSize=18;" parent="1" vertex="1">
          <mxGeometry x="-400.74000000000007" y="-660" width="120.26" height="40" as="geometry" />
        </mxCell>
        <mxCell id="OeQdHstX1ipTwiemMq3e-19" value="1006" style="rounded=1;whiteSpace=wrap;html=1;strokeWidth=2;gradientDirection=east;fillColor=#ffe6cc;strokeColor=#d79b00;fontFamily=Times New Roman;fontStyle=1;fontSize=18;" parent="1" vertex="1">
          <mxGeometry x="-391.1000000000001" y="-655" width="101.36" height="30" as="geometry" />
        </mxCell>
        <mxCell id="OeQdHstX1ipTwiemMq3e-21" value="&lt;font style=&quot;font-size: 14px&quot;&gt;decode_type1019&lt;/font&gt;" style="text;html=1;strokeColor=none;fillColor=none;align=center;verticalAlign=middle;whiteSpace=wrap;rounded=0;dashed=1;fontFamily=Times New Roman;fontStyle=1" parent="1" vertex="1">
          <mxGeometry x="-391.06" y="-758" width="100" height="20" as="geometry" />
        </mxCell>
        <mxCell id="OeQdHstX1ipTwiemMq3e-24" value="&lt;font style=&quot;font-size: 14px&quot;&gt;decode_type1020&lt;/font&gt;" style="text;html=1;strokeColor=none;fillColor=none;align=center;verticalAlign=middle;whiteSpace=wrap;rounded=0;dashed=1;fontFamily=Times New Roman;fontStyle=1" parent="1" vertex="1">
          <mxGeometry x="-390.3900000000001" y="-688" width="100" height="20" as="geometry" />
        </mxCell>
        <mxCell id="OeQdHstX1ipTwiemMq3e-25" value="&lt;font style=&quot;font-size: 14px&quot;&gt;decode_type1042&lt;/font&gt;" style="text;html=1;strokeColor=none;fillColor=none;align=center;verticalAlign=middle;whiteSpace=wrap;rounded=0;dashed=1;fontFamily=Times New Roman;fontStyle=1" parent="1" vertex="1">
          <mxGeometry x="-230.99000000000007" y="-758" width="100" height="20" as="geometry" />
        </mxCell>
        <mxCell id="OeQdHstX1ipTwiemMq3e-26" value="&lt;font style=&quot;font-size: 14px&quot;&gt;decode_type1046&lt;/font&gt;" style="text;html=1;strokeColor=none;fillColor=none;align=center;verticalAlign=middle;whiteSpace=wrap;rounded=0;dashed=1;fontFamily=Times New Roman;fontStyle=1" parent="1" vertex="1">
          <mxGeometry x="-71.27999999999997" y="-758" width="100" height="20" as="geometry" />
        </mxCell>
        <mxCell id="OeQdHstX1ipTwiemMq3e-28" value="&lt;font style=&quot;font-size: 14px&quot;&gt;decode_type1006&lt;/font&gt;" style="text;html=1;strokeColor=none;fillColor=none;align=center;verticalAlign=middle;whiteSpace=wrap;rounded=0;dashed=1;fontFamily=Times New Roman;fontStyle=1" parent="1" vertex="1">
          <mxGeometry x="-390.61" y="-620" width="100" height="20" as="geometry" />
        </mxCell>
        <mxCell id="OeQdHstX1ipTwiemMq3e-29" value="&lt;font style=&quot;font-size: 14px&quot;&gt;decode_msm7(SYS_GPS)&lt;/font&gt;" style="text;html=1;strokeColor=none;fillColor=none;align=center;verticalAlign=middle;whiteSpace=wrap;rounded=0;dashed=1;fontFamily=Times New Roman;fontStyle=1" parent="1" vertex="1">
          <mxGeometry x="-417.26000000000005" y="-828" width="152.02" height="20" as="geometry" />
        </mxCell>
        <mxCell id="OeQdHstX1ipTwiemMq3e-30" value="&lt;font style=&quot;font-size: 14px&quot;&gt;decode_msm7(SYS_GLO)&lt;/font&gt;" style="text;html=1;strokeColor=none;fillColor=none;align=center;verticalAlign=middle;whiteSpace=wrap;rounded=0;dashed=1;fontFamily=Times New Roman;fontStyle=1" parent="1" vertex="1">
          <mxGeometry x="-257.00000000000006" y="-828" width="152.02" height="20" as="geometry" />
        </mxCell>
        <mxCell id="OeQdHstX1ipTwiemMq3e-31" value="&lt;font style=&quot;font-size: 14px&quot;&gt;decode_msm7(SYS_GAL)&lt;/font&gt;" style="text;html=1;strokeColor=none;fillColor=none;align=center;verticalAlign=middle;whiteSpace=wrap;rounded=0;dashed=1;fontFamily=Times New Roman;fontStyle=1" parent="1" vertex="1">
          <mxGeometry x="-97.19999999999993" y="-828" width="152.02" height="20" as="geometry" />
        </mxCell>
        <mxCell id="OeQdHstX1ipTwiemMq3e-32" value="&lt;font style=&quot;font-size: 14px&quot;&gt;decode_msm7(SYS_CMP)&lt;/font&gt;" style="text;html=1;strokeColor=none;fillColor=none;align=center;verticalAlign=middle;whiteSpace=wrap;rounded=0;dashed=1;fontFamily=Times New Roman;fontStyle=1" parent="1" vertex="1">
          <mxGeometry x="63.000000000000114" y="-828" width="152.02" height="20" as="geometry" />
        </mxCell>
        <mxCell id="OeQdHstX1ipTwiemMq3e-34" value="D3 00 ..." style="rounded=1;whiteSpace=wrap;html=1;strokeWidth=2;gradientDirection=east;fillColor=#EEEEEE;strokeColor=none;fontFamily=Times New Roman;fontStyle=1;fontSize=18;" parent="1" vertex="1">
          <mxGeometry x="-281" y="-1105" width="101.36" height="30" as="geometry" />
        </mxCell>
        <mxCell id="OeQdHstX1ipTwiemMq3e-168" value="&lt;span style=&quot;color: rgb(0 , 0 , 0) ; font-size: 20px&quot;&gt;svr-&amp;gt;buff[0]&lt;/span&gt;&lt;font color=&quot;#ffffff&quot;&gt;&lt;br&gt;&lt;/font&gt;" style="rounded=1;whiteSpace=wrap;html=1;strokeWidth=2;gradientDirection=east;fillColor=#dae8fc;strokeColor=#6c8ebf;fontFamily=Times New Roman;fontStyle=1;fontSize=18;" parent="1" vertex="1">
          <mxGeometry x="-569.34" y="-1110" width="167.86" height="40" as="geometry" />
        </mxCell>
        <mxCell id="OeQdHstX1ipTwiemMq3e-169" value="&lt;span style=&quot;color: rgb(0 , 0 , 0) ; font-size: 20px&quot;&gt;rtcm[0]-&amp;gt;obs&lt;/span&gt;&lt;font color=&quot;#ffffff&quot;&gt;&lt;br&gt;&lt;/font&gt;" style="rounded=1;whiteSpace=wrap;html=1;strokeWidth=2;gradientDirection=east;fillColor=#dae8fc;strokeColor=#6c8ebf;fontFamily=Times New Roman;fontStyle=1;fontSize=18;" parent="1" vertex="1">
          <mxGeometry x="-568.85" y="-868" width="167.86" height="40" as="geometry" />
        </mxCell>
        <mxCell id="OeQdHstX1ipTwiemMq3e-170" value="&lt;span style=&quot;color: rgb(0 , 0 , 0) ; font-size: 20px&quot;&gt;rtcm[0]-&amp;gt;nav.eph&lt;/span&gt;&lt;font color=&quot;#ffffff&quot;&gt;&lt;br&gt;&lt;/font&gt;" style="rounded=1;whiteSpace=wrap;html=1;strokeWidth=2;gradientDirection=east;fillColor=#dae8fc;strokeColor=#6c8ebf;fontFamily=Times New Roman;fontStyle=1;fontSize=18;" parent="1" vertex="1">
          <mxGeometry x="-569.34" y="-798" width="167.86" height="40" as="geometry" />
        </mxCell>
        <mxCell id="OeQdHstX1ipTwiemMq3e-171" value="&lt;span style=&quot;color: rgb(0 , 0 , 0) ; font-size: 20px&quot;&gt;rtcm[0]-&amp;gt;nav.geph&lt;/span&gt;&lt;font color=&quot;#ffffff&quot;&gt;&lt;br&gt;&lt;/font&gt;" style="rounded=1;whiteSpace=wrap;html=1;strokeWidth=2;gradientDirection=east;fillColor=#dae8fc;strokeColor=#6c8ebf;fontFamily=Times New Roman;fontStyle=1;fontSize=18;" parent="1" vertex="1">
          <mxGeometry x="-568.86" y="-728" width="167.86" height="40" as="geometry" />
        </mxCell>
        <mxCell id="OeQdHstX1ipTwiemMq3e-172" value="&lt;span style=&quot;color: rgb(0 , 0 , 0) ; font-size: 20px&quot;&gt;rtcm[0]-&amp;gt;sta&lt;/span&gt;&lt;font color=&quot;#ffffff&quot;&gt;&lt;br&gt;&lt;/font&gt;" style="rounded=1;whiteSpace=wrap;html=1;strokeWidth=2;gradientDirection=east;fillColor=#dae8fc;strokeColor=#6c8ebf;fontFamily=Times New Roman;fontStyle=1;fontSize=18;" parent="1" vertex="1">
          <mxGeometry x="-569.34" y="-660" width="167.86" height="40" as="geometry" />
        </mxCell>
        <mxCell id="OeQdHstX1ipTwiemMq3e-176" value="&lt;span style=&quot;font-weight: normal&quot;&gt;&lt;font style=&quot;font-size: 16px&quot;&gt;值传递&lt;/font&gt;&lt;/span&gt;" style="text;html=1;strokeColor=none;fillColor=none;align=center;verticalAlign=middle;whiteSpace=wrap;rounded=0;dashed=1;fontFamily=Times New Roman;fontStyle=1" parent="1" vertex="1">
          <mxGeometry x="-332.3" y="-1034" width="63.43" height="20" as="geometry" />
        </mxCell>
        <mxCell id="OeQdHstX1ipTwiemMq3e-177" value="&lt;span style=&quot;font-weight: normal&quot;&gt;&lt;font style=&quot;font-size: 16px&quot;&gt;解析&lt;/font&gt;&lt;/span&gt;" style="text;html=1;strokeColor=none;fillColor=none;align=center;verticalAlign=middle;whiteSpace=wrap;rounded=0;dashed=1;fontFamily=Times New Roman;fontStyle=1" parent="1" vertex="1">
          <mxGeometry x="-329.53999999999996" y="-917.5" width="63.43" height="20" as="geometry" />
        </mxCell>
        <mxCell id="OeQdHstX1ipTwiemMq3e-181" value="&lt;span style=&quot;font-weight: normal&quot;&gt;&lt;font style=&quot;font-size: 16px&quot;&gt;1200byte&lt;/font&gt;&lt;/span&gt;" style="text;html=1;strokeColor=none;fillColor=none;align=center;verticalAlign=middle;whiteSpace=wrap;rounded=0;dashed=1;fontFamily=Times New Roman;fontStyle=1" parent="1" vertex="1">
          <mxGeometry x="-265.24" y="-970" width="65.24" height="20" as="geometry" />
        </mxCell>
        <mxCell id="wp81bA6mAi3hyo_PxzSs-13" value="&lt;span style=&quot;font-size: 20px&quot;&gt;rtcm缓冲区&lt;/span&gt;" style="text;html=1;strokeColor=none;fillColor=none;align=center;verticalAlign=middle;whiteSpace=wrap;rounded=0;dashed=1;fontFamily=Times New Roman;fontStyle=1" parent="1" vertex="1">
          <mxGeometry x="-35.75" y="-1024" width="111.5" height="20" as="geometry" />
        </mxCell>
      </root>
    </mxGraphModel>
  </diagram>
</mxfile>
